<mxfile host="app.diagrams.net" modified="2023-08-20T11:06:36.825Z" agent="Mozilla/5.0 (Windows NT 10.0; Win64; x64) AppleWebKit/537.36 (KHTML, like Gecko) Chrome/115.0.0.0 Safari/537.36" version="21.6.8" etag="tO3HwLLT2y7bV0MLqZdI" type="github">
  <diagram name="Page-1" id="YV5esLKn6ZyTyx8j54P8">
    <mxGraphModel>
      <root>
        <mxCell id="0" />
        <mxCell id="1" parent="0" />
      </root>
    </mxGraphModel>
  </diagram>
</mxfile>
